PathFileType	4	(X/Y/Z)	C:/Users/opensim2020/Desktop/walking_exp_matlab/subject06_walking16_straight_02.trc																																																																																																																																																							
DataRate	CameraRate	NumFrames	NumMarkers	Units	OrigDataRate	OrigDataStartFrame	OrigNumFrames																																																																																																																																																			
100	100	6	51	mm	100	1989	283																																																																																																																																																			
Frame#	Time	LFHD			RFHD			LBHD			RBHD			C7			T10			CLAV			STRN			RBAK			LSHO			LUPA			LELB			LFRM			LWRA			LWRB			LFIN			RSHO			RUPA			RELB			RFRM			RWRA			RWRB			RFIN			LASI			RASI			LPSI			RPSI			LTHI			LKNE			LTIB			LANK			LHEE			LTOE			RTHI			RKNE			RTIB			RANK			RHEE			RTOE			*39			*40			*41			*42			*43			*44			*45			*46			*47			*48			*49			*50		
		X1	Y1	Z1	X2	Y2	Z2	X3	Y3	Z3	X4	Y4	Z4	X5	Y5	Z5	X6	Y6	Z6	X7	Y7	Z7	X8	Y8	Z8	X9	Y9	Z9	X10	Y10	Z10	X11	Y11	Z11	X12	Y12	Z12	X13	Y13	Z13	X14	Y14	Z14	X15	Y15	Z15	X16	Y16	Z16	X17	Y17	Z17	X18	Y18	Z18	X19	Y19	Z19	X20	Y20	Z20	X21	Y21	Z21	X22	Y22	Z22	X23	Y23	Z23	X24	Y24	Z24	X25	Y25	Z25	X26	Y26	Z26	X27	Y27	Z27	X28	Y28	Z28	X29	Y29	Z29	X30	Y30	Z30	X31	Y31	Z31	X32	Y32	Z32	X33	Y33	Z33	X34	Y34	Z34	X35	Y35	Z35	X36	Y36	Z36	X37	Y37	Z37	X38	Y38	Z38	X39	Y39	Z39	X40	Y40	Z40	X41	Y41	Z41	X42	Y42	Z42	X43	Y43	Z43	X44	Y44	Z44	X45	Y45	Z45	X46	Y46	Z46	X47	Y47	Z47	X48	Y48	Z48	X49	Y49	Z49	X50	Y50	Z50	X51	Y51	Z51
																																																																																																																																																										
36	0.35	-1081.27759	1651.65662	-1525.87903	-1083.62903	1640.86462	-1394.33826	-1213.67395	1595.29761	-1528.68713	-1214.62976	1590.01782	-1400.01367	-1215.66431	1438.65198	-1462.41089	-1237.76318	1108.35815	-1443.33105	-1104.77808	1362.69653	-1467.1665	-1062.39893	1187.69421	-1470.8894	-1279.49158	1268.09448	-1371.23596	-1172.74609	1388.18115	-1626.729	-1207.255	1188.39783	-1692.75061	-1231.79578	1078.49341	-1700.06677	-1232.4259	926.89081	-1716.79553	-1195.65955	805.30139	-1668.66626	-1253.8147	809.75995	-1710.05676	-1225.83472	722.7005	-1705.75256	-1136.66687	1396.97949	-1304.07153	-1158.11829	1197.59705	-1209.86194	-1140.81714	1076.21411	-1198.38098	-1109.24097	959.76874	-1187.32593	-1037.2793	831.85223	-1232.67493	-1083.65649	824.72986	-1183.7948	-1035.84631	755.70947	-1191.03406	-1055.10779	955.5733	-1562.82996	-1055.16626	950.33392	-1340.50391	-1213.76294	982.68561	-1533.36035	-1206.50916	981.43372	-1363.95496	-1079.4552	647.28699	-1626.70752	-1044.82996	490.46378	-1596.9884	-1026.90442	235.42694	-1586.5155	-991.76959	68.03289	-1543.08313	-1027.45728	51.64132	-1495.33044	-843.71844	50.94365	-1539.15076	-1165.16248	618.17719	-1303.19556	-1192.91467	494.77719	-1325.24707	-1358.13306	278.18741	-1334.07788	-1456.88867	119.48871	-1381.81934	-1502.49158	112.7097	-1426.8269	-1327.47156	35.85556	-1391.46912	-1183.14929	1688.57947	-1468.56274	NaN	NaN	NaN	NaN	NaN	NaN	NaN	NaN	NaN	NaN	NaN	NaN	NaN	NaN	NaN	NaN	NaN	NaN	NaN	NaN	NaN	NaN	NaN	NaN	NaN	NaN	NaN	NaN	NaN	NaN	NaN	NaN	NaN
37	0.36	-1073.49902	1652.44409	-1527.39465	-1075.94629	1641.94495	-1395.84644	-1205.99487	1596.32813	-1530.14307	-1207.09778	1591.38525	-1401.54102	-1208.50391	1439.43445	-1463.63049	-1229.22217	1109.26929	-1444.12732	-1097.23718	1363.90564	-1468.05396	-1054.21155	1189.16443	-1471.59509	-1271.72729	1268.68311	-1372.44666	-1164.97168	1389.11511	-1627.75037	-1198.04114	1189.1571	-1693.90771	-1221.82971	1079.08362	-1701.31848	-1221.8407	927.61804	-1718.23865	-1185.18042	806.01898	-1669.74304	-1242.76953	810.26929	-1711.84583	-1214.7345	723.26587	-1707.10437	-1129.86353	1398.47571	-1305.1366	-1151.29443	1198.89783	-1211.32935	-1133.7832	1077.60901	-1200.00024	-1102.78723	960.97876	-1188.61548	-1031.52332	832.48401	-1233.25354	-1078.21399	825.76123	-1184.62268	-1030.62146	756.29462	-1191.62903	-1046.68054	957.29456	-1564.14172	-1046.19958	951.16779	-1341.80847	-1205.2605	984.19794	-1534.01672	-1197.72253	982.52576	-1364.71167	-1072.22876	648.5954	-1628.04175	-1039.32996	491.01556	-1599.24768	-1025.11487	235.688	-1587.66296	-990.87909	67.90889	-1543.69373	-1026.76917	51.96146	-1496.06458	-842.85583	49.86095	-1539.72046	-1155.86169	618.86902	-1303.67664	-1182.65833	495.20984	-1325.19751	-1351.96472	281.80643	-1333.97485	-1453.38794	124.49425	-1381.24512	-1498.57263	119.04447	-1426.39539	-1327.85876	35.75122	-1391.01965	-1175.31628	1689.69617	-1470.21558	NaN	NaN	NaN	NaN	NaN	NaN	NaN	NaN	NaN	NaN	NaN	NaN	NaN	NaN	NaN	NaN	NaN	NaN	NaN	NaN	NaN	NaN	NaN	NaN	NaN	NaN	NaN	NaN	NaN	NaN	NaN	NaN	NaN
38	0.37	-1065.78284	1653.41113	-1528.93689	-1068.35327	1643.21912	-1397.32666	-1198.35144	1597.50037	-1531.62952	-1199.5293	1592.8075	-1402.9563	-1201.09497	1440.36926	-1464.83997	-1220.79163	1110.34497	-1444.99817	-1089.63232	1365.22949	-1468.96167	-1046.02502	1190.63831	-1472.24939	-1263.83154	1269.4823	-1373.49426	-1157.23987	1390.25024	-1628.72412	-1188.87256	1190.10266	-1694.98633	-1211.76904	1079.95215	-1702.61902	-1211.09937	928.69849	-1719.93726	-1174.24109	806.94446	-1670.88599	-1231.35449	811.07751	-1713.72888	-1203.12976	723.94196	-1708.50537	-1122.95142	1400.10999	-1306.19873	-1144.49512	1200.80139	-1212.23792	-1126.93506	1079.22583	-1201.52527	-1096.5343	962.43982	-1189.8147	-1026.22266	833.23541	-1233.96021	-1072.95618	826.90942	-1185.70898	-1025.8103	757.19366	-1192.07971	-1038.30371	958.91937	-1565.55298	-1038.23767	952.51129	-1343.68555	-1197.48669	985.84467	-1535.00623	-1189.0592	983.82642	-1365.60742	-1065.43591	649.76672	-1629.45593	-1034.10229	491.6691	-1601.2146	-1022.4079	235.93794	-1588.74756	-990.12891	68.03389	-1544.36646	-1026.6167	52.16765	-1496.86133	-842.29053	48.75962	-1538.56018	-1146.03296	619.55359	-1304.27161	-1171.72864	495.6138	-1325.00623	-1345.26563	285.577	-1333.39136	-1449.07471	129.7672	-1380.70642	-1493.86292	125.78689	-1426.00049	-1327.43787	35.77789	-1391.15881	-1167.56714	1690.92712	-1471.875	NaN	NaN	NaN	NaN	NaN	NaN	NaN	NaN	NaN	NaN	NaN	NaN	NaN	NaN	NaN	NaN	NaN	NaN	NaN	NaN	NaN	NaN	NaN	NaN	NaN	NaN	NaN	NaN	NaN	NaN	NaN	NaN	NaN
39	0.38	-1058.11975	1654.49207	-1530.30981	-1060.69507	1644.52979	-1398.77612	-1190.75916	1598.72205	-1532.99512	-1191.979	1594.34277	-1404.37402	-1193.59485	1441.47705	-1466.08386	-1212.48547	1111.53394	-1445.96973	-1082.00171	1366.61023	-1469.90381	-1037.88892	1192.13025	-1473.04272	-1255.97681	1270.45117	-1374.55298	-1149.47388	1391.55518	-1629.72681	-1179.68958	1191.24963	-1696.10803	-1201.72144	1080.9176	-1703.95068	-1200.04468	929.81445	-1721.42639	-1163.0592	808.11847	-1672.17102	-1219.62585	812.06195	-1715.73315	-1191.21094	724.92523	-1710.05957	-1115.89148	1401.76685	-1307.34375	-1137.76721	1202.7865	-1213.27734	-1120.21973	1080.96655	-1202.94641	-1090.36816	964.03076	-1190.97021	-1020.24738	834.56262	-1234.6637	-1067.65356	828.31519	-1186.53284	-1020.80389	758.11328	-1192.76892	-1030.04565	960.5426	-1567.13953	-1029.1394	953.61243	-1345.01807	-1189.26941	987.27368	-1536.06421	-1180.67761	985.11749	-1366.77258	-1059.18457	650.78711	-1630.75146	-1029.02856	492.24615	-1602.68823	-1019.12451	236.19347	-1589.81787	-989.51581	68.00285	-1544.47107	-1026.68286	52.31426	-1497.44849	-841.7655	48.03649	-1536.55713	-1136.03943	620.42218	-1304.76965	-1160.44568	496.03525	-1324.39233	-1337.11267	289.20535	-1332.86121	-1443.95703	135.11226	-1380.25513	-1488.41785	132.85234	-1425.724	-1326.78735	35.8448	-1391.35217	-1159.89856	1692.2666	-1473.44507	NaN	NaN	NaN	NaN	NaN	NaN	NaN	NaN	NaN	NaN	NaN	NaN	NaN	NaN	NaN	NaN	NaN	NaN	NaN	NaN	NaN	NaN	NaN	NaN	NaN	NaN	NaN	NaN	NaN	NaN	NaN	NaN	NaN
40	0.39	-1050.55347	1655.61401	-1531.66565	-1053.29529	1645.89819	-1400.12207	-1183.21167	1599.99707	-1534.43933	-1184.52307	1595.85193	-1405.75635	-1185.98535	1442.67224	-1467.34399	-1204.45349	1112.82312	-1447.15515	-1074.27429	1367.99939	-1470.91443	-1029.86133	1193.58118	-1473.87756	-1248.1709	1271.58569	-1375.55078	-1141.66089	1392.98169	-1630.7395	-1170.64917	1192.55212	-1697.31165	-1191.71484	1082.15332	-1705.23865	-1188.9281	931.08063	-1722.94336	-1151.53516	809.50946	-1673.59631	-1207.69873	813.20911	-1717.62012	-1179.00598	726.20209	-1711.63403	-1108.64734	1403.41528	-1308.52844	-1130.82642	1204.63257	-1214.38928	-1113.60889	1082.73486	-1204.24084	-1084.3092	965.67621	-1191.9801	-1014.98743	835.34991	-1235.2334	-1062.37354	829.89429	-1187.1748	-1016.01862	759.20966	-1193.35339	-1022.49805	961.7298	-1567.94043	-1021.00732	954.95819	-1346.48828	-1181.05505	988.57959	-1537.27588	-1172.7124	986.48004	-1368.16235	-1053.32214	651.75641	-1631.78479	-1024.27185	492.75043	-1603.70215	-1015.57513	236.53748	-1590.88086	-988.80298	68.06573	-1544.43494	-1026.60828	52.46991	-1497.72498	-841.35931	47.1807	-1535.08887	-1125.62085	621.09698	-1305.04102	-1148.60376	496.31842	-1323.58936	-1328.42017	292.25369	-1332.84631	-1438.19775	140.65495	-1379.6676	-1482.07886	140.14774	-1425.47351	-1326.02405	35.94309	-1391.54895	-1152.33118	1693.60925	-1475.00793	NaN	NaN	NaN	NaN	NaN	NaN	NaN	NaN	NaN	NaN	NaN	NaN	NaN	NaN	NaN	NaN	NaN	NaN	NaN	NaN	NaN	NaN	NaN	NaN	NaN	NaN	NaN	NaN	NaN	NaN	NaN	NaN	NaN
41	0.4	-1043.03198	1656.74658	-1532.97595	-1045.8147	1647.27869	-1401.42908	-1175.70496	1601.14563	-1535.72559	-1177.11182	1597.15662	-1407.03931	-1178.37012	1443.84668	-1468.59558	-1196.57336	1114.12988	-1448.45361	-1066.57581	1369.33362	-1471.95483	-1021.83832	1194.93225	-1474.81299	-1240.40381	1272.89783	-1376.5929	-1133.73193	1394.4303	-1631.75781	-1161.55908	1193.95642	-1698.59973	-1181.78113	1083.44434	-1706.69006	-1177.76599	932.46191	-1724.56189	-1139.76074	811.03564	-1675.15417	-1195.65894	814.46405	-1719.52466	-1166.41833	727.62231	-1713.53857	-1101.28979	1404.98132	-1309.74219	-1123.71338	1206.35669	-1215.28491	-1107.13342	1084.39429	-1205.36755	-1078.32202	967.20056	-1192.99524	-1008.96832	836.64575	-1235.9115	-1056.77441	831.17609	-1188.20959	-1010.78271	760.26166	-1194.23779	-1014.60028	962.95093	-1569.2301	-1013.7807	956.22754	-1348.29321	-1172.98181	989.85156	-1538.69714	-1164.90149	987.62616	-1369.68298	-1047.63245	652.43182	-1632.50793	-1019.77655	493.05115	-1604.51929	-1012.10046	236.79358	-1591.49292	-988.23096	67.93594	-1544.1604	-1026.39636	52.62906	-1497.80823	-840.89948	46.69776	-1534.19067	-1115.12	621.84857	-1304.93225	-1136.31775	496.73953	-1322.57764	-1318.55176	295.48212	-1332.31116	-1431.74341	146.31149	-1378.99695	-1474.98901	147.7554	-1425.2207	-1325.06396	36.06184	-1391.70032	-1144.84534	1694.87524	-1476.42139	NaN	NaN	NaN	NaN	NaN	NaN	NaN	NaN	NaN	NaN	NaN	NaN	NaN	NaN	NaN	NaN	NaN	NaN	NaN	NaN	NaN	NaN	NaN	NaN	NaN	NaN	NaN	NaN	NaN	NaN	NaN	NaN	NaN
